<?xml version="1.0" standalone="no"?>
<!DOCTYPE svg PUBLIC "-//W3C//DTD SVG 20010904//EN"
 "http://www.w3.org/TR/2001/REC-SVG-20010904/DTD/svg10.dtd">
<svg version="1.0" xmlns="http://www.w3.org/2000/svg"
 width="100.000000pt" height="100.000000pt" viewBox="0 0 100.000000 100.000000"
 preserveAspectRatio="xMidYMid meet">
<metadata>
Created by potrace 1.14, written by Peter Selinger 2001-2017
</metadata>
<g transform="translate(0.000000,100.000000) scale(0.100000,-0.100000)"
fill="#000000" stroke="none">
<path d="M287 989 c-40 -11 -57 -28 -57 -55 0 -34 39 -72 85 -81 l41 -8 -86
-348 c-82 -334 -86 -348 -110 -353 -70 -14 -102 -27 -125 -50 -26 -26 -30 -41
-17 -61 27 -42 184 -38 375 11 292 75 458 180 544 343 94 177 74 336 -56 461
-64 62 -167 114 -260 132 -77 14 -295 21 -334 9z m333 -140 c106 -35 209 -113
241 -184 25 -54 24 -128 -2 -182 -40 -83 -169 -188 -305 -248 -60 -27 -224
-78 -230 -72 -13 12 164 653 191 698 6 8 60 2 105 -12z"/>
</g>
</svg>
